# xmcd
#
# Track frame offsets:
#	150
#	12393
#	26688
#	41000
#	56280
#	70835
#	84090
#	95025
#	106985
#	119120
#	127940
#	139323
#	152080
#	162320
#	172710
#
# Disc length: 2445 seconds
# Revision: 1
# Processed by: cddbd v1.5.2PL0 Copyright (c) Steve Scherf et al.
# Submitted via: dBpowerAMP V12.0
#
DISCID=c0098b0f
DTITLE=Various Artist - Country Stars Vol. 2
DYEAR=1996
DGENRE=Country
TTITLE0=Del Reeves - Girl On The Billboard
TTITLE1=Freddy Fender - Wasted Days and Wasted  Nights
TTITLE2=Kitty Wells - It Wasn't God Who Made Honky Tonk Angels
TTITLE3=Ernest Tubb - Solder's Last Letter
TTITLE4=Merle Haggard - Train Whistle Blues
TTITLE5=Ronnie Dove - One Kiss For Old Times Sake
TTITLE6=Don Williams - Always Something There To Remind Me
TTITLE7=Kenny Rogers - Elvira
TTITLE8=Hank Williams Sr. - Wild side of Life
TTITLE9=Buck Owens - Why Don't Momma Stay With Daddy and Me
TTITLE10=Dave Dudley - Six Days On The Road
TTITLE11=Bobby Holms - Fraulein
TTITLE12=George Jones - Walk Through This World With Me
TTITLE13=Waylon Jennings - Money (That's What I Want)
TTITLE14=Buck Owens - Down On The Corner Of Love
EXTD=
EXTT0=
EXTT1=
EXTT2=
EXTT3=
EXTT4=
EXTT5=
EXTT6=
EXTT7=
EXTT8=
EXTT9=
EXTT10=
EXTT11=
EXTT12=
EXTT13=
EXTT14=
PLAYORDER=
